<?xml version="1.0" encoding="utf-8"?>
<!-- Generator: Adobe Illustrator 19.1.0, SVG Export Plug-In . SVG Version: 6.00 Build 0)  -->
<svg version="1.1" id="Capa_1" xmlns="http://www.w3.org/2000/svg" xmlns:xlink="http://www.w3.org/1999/xlink" x="0px" y="0px"
	 viewBox="244 502 114 114" style="enable-background:new 244 502 114 114;" xml:space="preserve">
<g>
	<path d="M346.4,517.4c-3.8-3.4-8.3-5.1-13.6-5.1h-64.1c-5.3,0-9.8,1.7-13.6,5.1c-3.8,3.4-5.6,7.6-5.6,12.4v58.5
		c0,4.8,1.9,9,5.6,12.4c3.8,3.4,8.3,5.1,13.6,5.1h64.1c5.3,0,9.8-1.7,13.6-5.1c3.8-3.4,5.6-7.6,5.6-12.4v-58.5
		C352,524.9,350.2,520.8,346.4,517.4z M327.9,548.2c0,0.4,0.1,0.9,0.1,1.6c0,3.4-0.5,6.8-1.6,10.3c-1.1,3.4-2.8,6.7-5,9.9
		c-2.2,3.1-4.9,5.9-8,8.3c-3.1,2.4-6.9,4.3-11.2,5.8c-4.4,1.4-9,2.2-14,2.2c-7.7,0-14.9-1.9-21.5-5.7c1.1,0.1,2.2,0.2,3.3,0.2
		c6.5,0,12.3-1.8,17.4-5.5c-3,0-5.7-0.9-8.1-2.6c-2.4-1.7-4-3.8-5-6.3c1.2,0.2,2,0.2,2.6,0.2c1,0,2.1-0.2,3.4-0.5
		c-3.2-0.6-6-2-8.2-4.4c-2.2-2.4-3.3-5.1-3.3-8.1v-0.1c2.4,1,4.6,1.5,6.7,1.6c-4-2.5-6.1-6-6.1-10.7c0-2.3,0.6-4.4,1.9-6.5
		c3.5,3.9,7.8,7.1,12.8,9.4c5,2.4,10.4,3.7,16.2,4c-0.2-0.8-0.3-1.7-0.3-2.9c0-3.5,1.4-6.5,4.1-9c2.7-2.5,6-3.7,9.9-3.7
		c4.1,0,7.5,1.3,10.2,4c3.1-0.5,6.1-1.6,8.9-3.1c-1.1,3.1-3.2,5.5-6.2,7.1c2.9-0.4,5.6-1.1,8.1-2.1
		C333.1,544.2,330.7,546.4,327.9,548.2z"/>
</g>
</svg>
